<svg xmlns="http://www.w3.org/2000/svg" viewBox="0 0 500 287.07"><defs><style>.a{font-size:178.62px;font-family:Pacifico-Regular, Pacifico;}.a,.b{fill:#4ec8ed;}.c{fill:#fff;}</style></defs><title>Asset 1</title><text class="a" transform="translate(0 205.44)">drink</text><path class="b" d="M385.27,106.86s18.19-81.68,44.62-99.22C464.3-15.21,491.5,18.39,483.4,40.39,471.68,72.19,441,59.15,418.6,64.55,397.94,69.51,385.27,106.86,385.27,106.86Z"/><path class="c" d="M424.19,20c.89,3.37,8.21-4.88,19.17-7.79s21.41.65,20.52-2.72S452.92,4,442,6.93,423.3,16.64,424.19,20Z"/><path class="b" d="M409.81,123.36s39.38-44.47,61.82-46.28c29.22-2.36,34.57,27.86,22,38.74-18.21,15.72-32.76-2.91-48.54-7.28C430.52,104.52,409.81,123.36,409.81,123.36Z"/><path class="b" d="M398.65,111.55s5.14-29.25,14.23-35.9c11.84-8.65,22,2.83,19.5,10.76-3.65,11.46-14.72,7.33-22.59,9.6C402.54,98.1,398.65,111.55,398.65,111.55Z"/></svg>